<?xml version="1.0" encoding="UTF-8"?>
<svg width="350px" height="150px" viewBox="0 0 350 150" version="1.1" xmlns="http://www.w3.org/2000/svg" xmlns:xlink="http://www.w3.org/1999/xlink">
    <!-- Generator: Sketch 60.1 (88133) - https://sketch.com -->
    <title>Logo</title>
    <desc>Created with Sketch.</desc>
    <defs>
        <linearGradient x1="50%" y1="0%" x2="50%" y2="99.4298986%" id="linearGradient-1">
            <stop stop-color="#DDC73F" offset="0%"></stop>
            <stop stop-color="#DAC22C" offset="100%"></stop>
        </linearGradient>
        <path d="M131,33 C152.539105,33 170,50.4608948 170,72 C170,93.5391052 152.539105,111 131,111 C109.460895,111 92,93.5391052 92,72 C92,50.4608948 109.460895,33 131,33 Z" id="path-2"></path>
        <path d="M311,33 C332.539105,33 350,50.4608948 350,72 C350,93.5391052 332.539105,111 311,111 C289.460895,111 272,93.5391052 272,72 C272,50.4608948 289.460895,33 311,33 Z" id="path-3"></path>
        <linearGradient x1="50%" y1="0%" x2="50%" y2="99.4298986%" id="linearGradient-4">
            <stop stop-color="#2A9EC5" offset="0%"></stop>
            <stop stop-color="#2190B6" offset="100%"></stop>
        </linearGradient>
        <path d="M40,33 C61.5391052,33 79,50.4608948 79,72 C79,93.5391052 61.5391052,111 40,111 C18.4608948,111 1,93.5391052 1,72 C1,50.4608948 18.4608948,33 40,33 Z" id="path-5"></path>
        <path d="M221,33 C242.539105,33 260,50.4608948 260,72 C260,93.5391052 242.539105,111 221,111 C199.460895,111 182,93.5391052 182,72 C182,50.4608948 199.460895,33 221,33 Z" id="path-6"></path>
    </defs>
    <g id="Logo" stroke="none" stroke-width="1" fill="none" fill-rule="evenodd">
        <rect id="Background" fill-opacity="0" fill="#DDC73F" x="0" y="0" width="350" height="150"></rect>
        <g id="bg-yellow">
            <use fill="#854D4D" xlink:href="#path-2"></use>
            <use fill="url(#linearGradient-1)" xlink:href="#path-2"></use>
        </g>
        <g id="bg-yellow">
            <use fill="#854D4D" xlink:href="#path-3"></use>
            <use fill="url(#linearGradient-1)" xlink:href="#path-3"></use>
        </g>
        <g id="bg-blue">
            <use fill="#854D4D" xlink:href="#path-5"></use>
            <use fill="url(#linearGradient-4)" xlink:href="#path-5"></use>
        </g>
        <g id="bg-blue">
            <use fill="#854D4D" xlink:href="#path-6"></use>
            <use fill="url(#linearGradient-4)" xlink:href="#path-6"></use>
        </g>
        <path d="M39.968395,100 C39.835972,99.9104421 39.7424969,99.8630292 39.5880033,99.7616181 C29.7263807,93.3740357 18.2250492,80.9136406 17.0462244,65.3806209 C16.4827773,57.9920978 21.1409528,52.8767639 27.1636052,52.7648166 C31.0077685,52.6950141 34.098938,54.0792098 35.7724018,56.7264346 C37.1641421,58.9271872 37.5185685,62.3198495 37.7444667,60.752587 C38.5558824,54.7719661 36.0891785,49.0231421 34.7519654,44 C36.2410756,44.5492004 38.1118757,44.8257761 39.9891672,44.8323612 L40.0190273,44.8323612 C41.8924241,44.8257761 43.7593294,44.5492004 45.2471414,44 C43.913823,49.0231421 41.4497156,54.7719661 42.2585348,60.752587 C42.4831347,62.3198495 42.8388594,58.9271872 44.2280032,56.7264346 C45.8988705,54.0792098 48.9926365,52.6950141 52.8342033,52.7648166 C58.8568556,52.8767639 63.5150312,57.9920978 62.9541806,65.3806209 C61.7753558,80.9136406 50.2701295,93.3740357 40.4201913,99.7616181 C40.311137,99.8419567 40.2163637,99.8933208 40.0618701,100 L39.968395,100 Z" id="spade" fill="#FFFFFF"></path>
        <path d="M157,71.5148411 C146.245731,79.4251618 137.594474,89.5928179 131.037423,102 C124.429007,89.5928179 115.749866,79.4251618 105,71.5148411 C115.749866,63.6386551 124.429007,53.4591261 131.037423,41 C137.594474,53.4591261 146.245731,63.6386551 157,71.5148411 Z" id="diamond" fill="#FFFFFF"></path>
        <path d="M324.459643,47.3342859 C320.234343,46.0344041 313.66948,48.3212829 311.259474,57.8152541 C311.056269,58.3349383 310.843582,58.3241954 310.653924,57.7964542 C307.172352,48.1775976 301.433855,46.0773754 297.400921,47.3342859 C291.426707,49.2451658 286.586373,56.3058873 287.028005,65.3177743 C287.147218,81.0425838 301.34309,88.9613884 310.931637,104 C320.512056,88.9613884 334.867782,81.0654123 334.912487,65.2707744 C335.738852,56.1662306 330.595067,49.2089088 324.459643,47.3342859" id="Heart" fill="#FFFFFF"></path>
        <path d="M220.999323,41 C214.687918,41 209.565913,46.808321 209.565913,53.9643689 C209.565913,58.0552929 211.25925,61.6851525 213.85886,64.0805052 C214.736686,64.8907782 214.361443,65.767892 213.467361,65.2208895 C211.841758,64.2250994 210.00889,63.5935229 208.029718,63.5935229 C201.940479,63.5935229 197,69.1958654 197,76.0968273 C197,83.0005174 201.940479,88.6028599 208.029718,88.6028599 C212.085598,88.6028599 215.638896,86.1174769 217.54627,82.4084997 C217.733215,82.0456502 217.883583,81.5477551 218.147744,81.5477551 C218.508086,81.5477551 218.678774,82.1438651 218.678774,83.2610598 C218.678774,87.7448435 216.967827,92.9816082 214.441368,99 C215.533232,98.7380936 218.83998,98.0751429 220.999323,98.0751429 C223.161375,98.0751429 226.466768,98.7380936 227.559986,99 C225.030819,92.9816082 223.321226,87.7448435 223.321226,83.2610598 C223.321226,82.1438651 223.491914,81.5477551 223.852256,81.5477551 C224.116417,81.5477551 224.266785,82.0456502 224.452375,82.4084997 C226.359749,86.1174769 229.911692,88.6028599 233.970282,88.6028599 C240.059521,88.6028599 245,83.0005174 245,76.0968273 C245,69.1958654 240.059521,63.5935229 233.970282,63.5935229 C231.99111,63.5935229 230.156888,64.2250994 228.532639,65.2208895 C227.637203,65.767892 227.261959,64.8907782 228.139785,64.0805052 C230.738041,61.6851525 232.432732,58.0552929 232.432732,53.9643689 C232.432732,46.808321 227.312082,41 220.999323,41" id="Club" fill="#FFFFFF"></path>
    </g>
</svg>