<?xml version="1.0" encoding="UTF-8"?>
<svg width="37px" height="56px" viewBox="0 0 37 56" version="1.1" xmlns="http://www.w3.org/2000/svg" xmlns:xlink="http://www.w3.org/1999/xlink">
    <!-- Generator: Sketch 59.1 (86144) - https://sketch.com -->
    <title>BlueD</title>
    <desc>Created with Sketch.</desc>
    <g id="Page-1" stroke="none" stroke-width="1" fill="none" fill-rule="evenodd">
        <g id="codeworx-logo" transform="translate(-83.000000, -8.000000)" fill="#4CA5FF" fill-rule="nonzero">
            <path d="M113.53,63.17 L113.28,57.852 L113.53,57.852 C112.48,60.04 110.84,61.602 108.6,62.561 C106.37,63.51 103.92,64 101.24,64 C98.26,64 95.66,63.432 93.46,62.318 C91.24,61.21 89.41,59.73 87.94,57.849 C86.47,55.98 85.379,53.81 84.629,51.318 C83.879,48.839 83.52,46.189 83.52,43.41 C83.52,40.63 83.879,38 84.6,35.52 C85.32,33.05 86.4,30.88 87.87,29.03 C89.33,27.19 91.16,25.72 93.38,24.63 C95.59,23.53 98.151,22.99 101.09,22.99 C102.09,22.99 103.151,23.1 104.29,23.28 C105.431,23.49 106.57,23.83 107.71,24.3 C108.851,24.77 109.931,25.39 110.95,26.17 C111.96,26.96 112.82,27.91 113.53,29.07 L113.53,8.98 L119.53,8.98 L119.53,63.17 L113.53,63.17 Z M91.21,49.05 C91.66,50.77 92.37,52.29 93.3,53.62 C94.24,54.96 95.441,56.019 96.91,56.81 C98.38,57.599 100.12,57.99 102.1,57.99 C104.169,57.99 105.93,57.59 107.37,56.74 C108.81,55.898 110,54.81 110.92,53.45 C111.82,52.09 112.5,50.54 112.9,48.8 C113.31,47.071 113.53,45.3 113.53,43.52 C113.53,41.651 113.31,39.832 112.87,38.082 C112.431,36.332 111.75,34.792 110.81,33.442 C109.87,32.112 108.65,31.032 107.15,30.222 C105.65,29.412 103.85,28.992 101.73,28.992 C99.65,28.992 97.879,29.412 96.45,30.252 C95.01,31.102 93.85,32.212 92.98,33.582 C92.1,34.972 91.48,36.552 91.1,38.332 C90.709,40.112 90.52,41.941 90.52,43.821 C90.52,45.602 90.74,47.352 91.21,49.05 Z" id="BlueD"></path>
        </g>
    </g>
</svg>