<?xml version="1.0" encoding="UTF-8"?>
<svg width="38px" height="41px" viewBox="0 0 38 41" version="1.1" xmlns="http://www.w3.org/2000/svg" xmlns:xlink="http://www.w3.org/1999/xlink">
    <!-- Generator: Sketch 59.1 (86144) - https://sketch.com -->
    <title>BlueO</title>
    <desc>Created with Sketch.</desc>
    <g id="Page-1" stroke="none" stroke-width="1" fill="none" fill-rule="evenodd">
        <g id="codeworx-logo" transform="translate(-40.000000, -23.000000)" fill="#4CA5FF" fill-rule="nonzero">
            <path d="M41.68,35.49 C42.459,32.99 43.65,30.8 45.23,28.96 C46.79,27.11 48.73,25.64 51.04,24.58 C53.36,23.52 56.01,22.99 59.01,22.99 C62.05,22.99 64.721,23.52 67,24.58 C69.28,25.64 71.221,27.11 72.8,28.96 C74.361,30.8 75.55,32.99 76.33,35.49 C77.11,37.99 77.52,40.689 77.52,43.569 C77.52,46.461 77.11,49.151 76.33,51.621 C75.55,54.1 74.36,56.27 72.8,58.121 C71.221,59.961 69.28,61.421 67,62.451 C64.72,63.46 62.05,64 59.01,64 C56.01,64 53.361,63.46 51.04,62.45 C48.73,61.42 46.79,59.96 45.23,58.12 C43.65,56.269 42.459,54.099 41.68,51.62 C40.9,49.15 40.509,46.46 40.509,43.568 C40.51,40.689 40.9,37.99 41.68,35.49 Z M48.4,49.73 C49,51.54 49.81,53.04 50.86,54.259 C51.9,55.48 53.14,56.398 54.54,57.038 C55.95,57.679 57.44,57.987 59.01,57.987 C60.58,57.987 62.08,57.678 63.481,57.038 C64.891,56.397 66.111,55.477 67.161,54.259 C68.201,53.038 69.031,51.538 69.631,49.73 C70.222,47.91 70.522,45.849 70.522,43.519 C70.522,41.208 70.222,39.148 69.631,37.33 C69.031,35.54 68.201,34.02 67.161,32.77 C66.111,31.53 64.891,30.6 63.481,29.96 C62.081,29.32 60.581,28.99 59.01,28.99 C57.441,28.99 55.95,29.32 54.54,29.96 C53.141,30.6 51.9,31.53 50.86,32.77 C49.81,34.02 49,35.54 48.4,37.33 C47.81,39.15 47.509,41.21 47.509,43.519 C47.51,45.852 47.81,47.91 48.4,49.73 Z" id="BlueO"></path>
        </g>
    </g>
</svg>