<?xml version="1.0" encoding="UTF-8"?>
<svg width="20px" height="86px" viewBox="0 0 20 86" version="1.1" xmlns="http://www.w3.org/2000/svg" xmlns:xlink="http://www.w3.org/1999/xlink">
    <!-- Generator: Sketch 59.1 (86144) - https://sketch.com -->
    <title>CurlyBrace</title>
    <desc>Created with Sketch.</desc>
    <g id="Page-1" stroke="none" stroke-width="1" fill="none" fill-rule="evenodd">
        <g id="codeworx-logo" transform="translate(-353.000000, 0.000000)" fill="#EFEFEF" fill-rule="nonzero">
            <g id="Group" transform="translate(353.000000, 0.000000)">
                <path d="M16.01,6.543 C15.289,6.543 14.731,6.773 14.3,7.235 C13.869,7.684 13.52,8.256 13.26,8.972 C12.989,9.701 12.82,10.539 12.731,11.462 C12.63,12.409 12.581,13.357 12.581,14.316 L12.581,30.809 C12.581,32.934 12.32,34.72 11.791,36.201 C11.262,37.671 10.651,38.885 9.962,39.844 C9.262,40.804 8.541,41.532 7.82,42.006 C7.081,42.492 6.491,42.783 6.05,42.895 L6.05,43.186 C6.489,43.233 7.079,43.489 7.82,43.903 C8.542,44.315 9.26,45.007 9.962,45.93 C10.651,46.866 11.262,48.079 11.791,49.575 C12.32,51.093 12.581,52.973 12.581,55.258 L12.581,71.679 C12.581,72.589 12.632,73.5 12.731,74.449 C12.82,75.359 12.991,76.185 13.26,76.976 C13.52,77.715 13.869,78.298 14.3,78.773 C14.731,79.21 15.289,79.439 16.01,79.439 L19.59,79.439 L19.59,85.513 L14.481,85.513 C13.541,85.513 12.621,85.244 11.69,84.736 C10.76,84.202 9.911,83.435 9.161,82.453 C8.411,81.433 7.791,80.182 7.302,78.701 C6.822,77.181 6.581,75.458 6.581,73.513 L6.581,56.92 C6.581,55.27 6.401,53.774 6.052,52.428 C5.712,51.091 5.241,49.961 4.661,49.051 C4.081,48.141 3.432,47.436 2.682,46.938 C1.932,46.44 1.142,46.198 0.352,46.198 L0.352,39.979 C1.142,39.979 1.932,39.724 2.682,39.19 C3.432,38.68 4.081,37.94 4.661,36.992 C5.241,36.045 5.712,34.903 6.052,33.555 C6.403,32.231 6.581,30.749 6.581,29.158 L6.581,12.469 C6.581,10.538 6.82,8.802 7.302,7.307 C7.791,5.802 8.411,4.55 9.161,3.542 C9.911,2.546 10.762,1.781 11.69,1.247 C12.621,0.737 13.541,0.47 14.481,0.47 L19.59,0.47 L19.59,6.543 L16.01,6.543 Z" id="CurlyBrace"></path>
            </g>
        </g>
    </g>
</svg>