<?xml version="1.0" encoding="UTF-8"?>
<svg width="512px" height="512px" viewBox="0 0 512 512" version="1.1" xmlns="http://www.w3.org/2000/svg" xmlns:xlink="http://www.w3.org/1999/xlink">
    <!-- Generator: Sketch 60.1 (88133) - https://sketch.com -->
    <title>SuitIcon</title>
    <desc>Created with Sketch.</desc>
    <defs>
        <linearGradient x1="50%" y1="0%" x2="50%" y2="99.4298986%" id="linearGradient-1">
            <stop stop-color="#DDC73F" offset="0%"></stop>
            <stop stop-color="#DAC22C" offset="100%"></stop>
        </linearGradient>
        <path d="M146.141456,-5.90428975e-15 L365.858544,5.90428975e-15 C416.675112,-3.43056238e-15 435.102427,5.29105984 453.680205,15.2265641 C472.257983,25.1620684 486.837932,39.7420171 496.773436,58.3197949 C506.70894,76.8975727 512,95.3248882 512,146.141456 L512,365.858544 C512,416.675112 506.70894,435.102427 496.773436,453.680205 C486.837932,472.257983 472.257983,486.837932 453.680205,496.773436 C435.102427,506.70894 416.675112,512 365.858544,512 L146.141456,512 C95.3248882,512 76.8975727,506.70894 58.3197949,496.773436 C39.7420171,486.837932 25.1620684,472.257983 15.2265641,453.680205 C5.29105984,435.102427 2.28704159e-15,416.675112 -3.93619317e-15,365.858544 L3.93619317e-15,146.141456 C-2.28704159e-15,95.3248882 5.29105984,76.8975727 15.2265641,58.3197949 C25.1620684,39.7420171 39.7420171,25.1620684 58.3197949,15.2265641 C76.8975727,5.29105984 95.3248882,3.43056238e-15 146.141456,-5.90428975e-15 Z" id="path-2"></path>
        <linearGradient x1="50%" y1="0%" x2="50%" y2="99.4298986%" id="linearGradient-3">
            <stop stop-color="#2A9EC5" offset="0%"></stop>
            <stop stop-color="#2190B6" offset="100%"></stop>
        </linearGradient>
        <path d="M146.141456,-5.90428975e-15 L365.858544,5.90428975e-15 C416.675112,-3.43056238e-15 435.102427,5.29105984 453.680205,15.2265641 C472.257983,25.1620684 486.837932,39.7420171 496.773436,58.3197949 C506.70894,76.8975727 512,95.3248882 512,146.141456 L512,365.858544 C512,416.675112 506.70894,435.102427 496.773436,453.680205 C486.837932,472.257983 472.257983,486.837932 453.680205,496.773436 C435.102427,506.70894 416.675112,512 365.858544,512 L146.141456,512 C95.3248882,512 76.8975727,506.70894 58.3197949,496.773436 C39.7420171,486.837932 25.1620684,472.257983 15.2265641,453.680205 C5.29105984,435.102427 2.28704159e-15,416.675112 -3.93619317e-15,365.858544 L3.93619317e-15,146.141456 C-2.28704159e-15,95.3248882 5.29105984,76.8975727 15.2265641,58.3197949 C25.1620684,39.7420171 39.7420171,25.1620684 58.3197949,15.2265641 C76.8975727,5.29105984 95.3248882,3.43056238e-15 146.141456,-5.90428975e-15 Z" id="path-4"></path>
    </defs>
    <g id="SuitIcon" stroke="none" stroke-width="1" fill="none" fill-rule="evenodd">
        <g id="bg-yellow">
            <use fill="#854D4D" xlink:href="#path-2"></use>
            <use fill="url(#linearGradient-1)" xlink:href="#path-2"></use>
        </g>
        <g id="bg-blue">
            <use fill="#854D4D" xlink:href="#path-4"></use>
            <use fill="url(#linearGradient-3)" xlink:href="#path-4"></use>
        </g>
        <path d="M255.995146,49 C210.763413,49 174.055711,90.3592512 174.055711,141.315247 C174.055711,170.445448 186.191291,196.292552 204.821833,213.349115 C211.112917,219.118817 208.423673,225.364472 202.016087,221.469437 C190.36593,214.378725 177.230378,209.881465 163.046313,209.881465 C119.406768,209.881465 84,249.774007 84,298.913615 C84,348.07265 119.406768,387.965192 163.046313,387.965192 C192.113454,387.965192 217.578754,370.267551 231.248271,343.857076 C232.588039,341.273337 233.665679,337.72798 235.558829,337.72798 C238.141281,337.72798 239.364547,341.972695 239.364547,349.927891 C239.364547,381.855523 227.102757,419.1449 208.996472,462 C216.821494,460.135046 240.519854,455.414379 255.995146,455.414379 C271.489854,455.414379 295.178506,460.135046 303.013236,462 C284.887534,419.1449 272.635453,381.855523 272.635453,349.927891 C272.635453,341.972695 273.858719,337.72798 276.441171,337.72798 C278.334321,337.72798 279.411961,341.273337 280.74202,343.857076 C294.411537,370.267551 319.86713,387.965192 348.953687,387.965192 C392.593232,387.965192 428,348.07265 428,298.913615 C428,249.774007 392.593232,209.881465 348.953687,209.881465 C334.769622,209.881465 321.624361,214.378725 309.983913,221.469437 C303.566619,225.364472 300.877374,219.118817 307.168459,213.349115 C325.789292,196.292552 337.934581,170.445448 337.934581,141.315247 C337.934581,90.3592512 301.236587,49 255.995146,49" id="Club" fill="#FFFFFF"></path>
    </g>
</svg>