<?xml version="1.0" encoding="UTF-8"?>
<svg width="350px" height="150px" viewBox="0 0 350 150" version="1.1" xmlns="http://www.w3.org/2000/svg" xmlns:xlink="http://www.w3.org/1999/xlink">
    <!-- Generator: Sketch 60.1 (88133) - https://sketch.com -->
    <title>Logo</title>
    <desc>Created with Sketch.</desc>
    <g id="Logo" stroke="none" stroke-width="1" fill="none" fill-rule="evenodd">
        <rect id="bg" fill-opacity="0" fill="#212121" x="0" y="0" width="350" height="150"></rect>
        <path d="M219.999069,63 C211.320887,63 204.278131,70.9115198 204.278131,80.6550637 C204.278131,86.2291735 206.608331,91.1715509 210.186521,94.4342631 C211.391669,95.5379369 210.873846,96.7345124 209.642621,95.9875817 C207.409279,94.6330731 204.889086,93.7728021 202.164,93.7728021 C193.795022,93.7728021 187,101.4019 187,110.801708 C187,120.203373 193.795022,127.832471 202.164,127.832471 C207.746423,127.832471 212.628482,124.447128 215.254847,119.396985 C215.510033,118.902747 215.713064,118.226422 216.081873,118.226422 C216.57548,118.226422 216.808314,119.036526 216.808314,120.5564 C216.808314,126.667482 214.457624,133.796768 210.983744,142 C212.483194,141.643257 217.033697,140.740251 219.999069,140.740251 C222.973753,140.740251 227.518669,141.643257 229.023707,142 C225.546101,133.796768 223.191686,126.667482 223.191686,120.5564 C223.191686,119.036526 223.430108,118.226422 223.925578,118.226422 C224.292524,118.226422 224.495555,118.902747 224.747015,119.396985 C227.377106,124.447128 232.253577,127.832471 237.836,127.832471 C246.210566,127.832471 253,120.203373 253,110.801708 C253,101.4019 246.210566,93.7728021 237.836,93.7728021 C235.116502,93.7728021 232.594446,94.6330731 230.353653,95.9875817 C229.131742,96.7345124 228.608331,95.5379369 229.82093,94.4342631 C233.393531,91.1715509 235.723732,86.2291735 235.723732,80.6550637 C235.723732,70.9115198 228.679113,63 219.999069,63" id="club" fill="#2A9EC5"></path>
        <path d="M134.047498,65 C142.369909,80.7270936 153.350351,93.5766629 167,103.518734 C153.350351,113.503893 142.369909,126.338475 134.047498,142 C125.659893,126.338475 114.644061,113.503893 101,103.518734 C114.644061,93.5766629 125.659893,80.7270936 134.047498,65" id="diamond" fill="#DDC73F"></path>
        <path d="M322.510285,65.4639693 C316.706372,63.6605328 307.657782,66.831901 304.340462,79.9863791 C304.064795,80.7047759 303.774226,80.691748 303.511598,79.9603232 C298.726536,66.6346211 290.842081,63.7219502 285.295209,65.4639693 C277.082933,68.1104984 270.429667,77.8963283 271.038743,90.3826601 C271.202653,112.183956 290.715423,123.162771 303.891571,144 C317.090071,123.162771 336.824493,112.213734 336.878508,90.3156594 C338.020292,77.6990484 330.951663,68.062109 322.510285,65.4639693" id="heart" fill="#DDC73F"></path>
        <path d="M50.9546537,144 C50.7646554,143.873659 50.630539,143.806773 50.4088743,143.663711 C36.2595897,134.652658 19.7576793,117.0746 18.0663219,95.1619473 C17.2578978,84.7388523 23.9413671,77.5225776 32.582564,77.3646519 C38.0981026,77.2661806 42.5332588,79.2188852 44.9343157,82.9533631 C46.9311605,86.0579962 47.4396853,90.8440734 47.7638,88.6331138 C48.9280053,80.1961665 45.3888214,72.0862183 43.4702112,65 C45.6067606,65.7747648 48.2909522,66.1649341 50.9844574,66.1742239 L51.0273001,66.1742239 C53.7152171,66.1649341 56.3938205,65.7747648 58.5285072,65 C56.6154852,72.0862183 53.0800268,80.1961665 54.2405065,88.6331138 C54.5627585,90.8440734 55.0731461,86.0579962 57.0662654,82.9533631 C59.4635968,79.2188852 63.9024785,77.2661806 69.4142917,77.3646519 C78.0554885,77.5225776 84.7389578,84.7388523 83.9342592,95.1619473 C82.2429018,117.0746 65.7354032,134.652658 51.6028832,143.663711 C51.446414,143.777046 51.3104348,143.849506 51.0887701,144 L50.9546537,144 Z" id="spade" fill="#2A9EC5"></path>
        <text id="REACT-PLAYING-CARDS" font-family="ArialMT, Arial" font-size="27" font-weight="normal" fill="#FFFFFF">
            <tspan x="13" y="29">REACT PLAYING CARDS</tspan>
        </text>
    </g>
</svg>