<?xml version="1.0" encoding="UTF-8"?>
<svg width="350px" height="150px" viewBox="0 0 350 150" version="1.1" xmlns="http://www.w3.org/2000/svg" xmlns:xlink="http://www.w3.org/1999/xlink">
    <!-- Generator: Sketch 60.1 (88133) - https://sketch.com -->
    <title>Logo</title>
    <desc>Created with Sketch.</desc>
    <g id="Logo" stroke="none" stroke-width="1" fill="none" fill-rule="evenodd">
        <rect id="bg" fill-opacity="0" fill="#212121" x="0" y="0" width="350" height="150"></rect>
        <path d="M219.999069,10 C211.320887,10 204.278131,17.9115198 204.278131,27.6550637 C204.278131,33.2291735 206.608331,38.1715509 210.186521,41.4342631 C211.391669,42.5379369 210.873846,43.7345124 209.642621,42.9875817 C207.409279,41.6330731 204.889086,40.7728021 202.164,40.7728021 C193.795022,40.7728021 187,48.4019004 187,57.8017075 C187,67.2033727 193.795022,74.832471 202.164,74.832471 C207.746423,74.832471 212.628482,71.4471283 215.254847,66.3969848 C215.510033,65.9027471 215.713064,65.2264218 216.081873,65.2264218 C216.57548,65.2264218 216.808314,66.0365257 216.808314,67.5563996 C216.808314,73.667482 214.457624,80.7967684 210.983744,89 C212.483194,88.643257 217.033697,87.7402512 219.999069,87.7402512 C222.973753,87.7402512 227.518669,88.643257 229.023707,89 C225.546101,80.7967684 223.191686,73.667482 223.191686,67.5563996 C223.191686,66.0365257 223.430108,65.2264218 223.925578,65.2264218 C224.292524,65.2264218 224.495555,65.9027471 224.747015,66.3969848 C227.377106,71.4471283 232.253577,74.832471 237.836,74.832471 C246.210566,74.832471 253,67.2033727 253,57.8017075 C253,48.4019004 246.210566,40.7728021 237.836,40.7728021 C235.116502,40.7728021 232.594446,41.6330731 230.353653,42.9875817 C229.131742,43.7345124 228.608331,42.5379369 229.82093,41.4342631 C233.393531,38.1715509 235.723732,33.2291735 235.723732,27.6550637 C235.723732,17.9115198 228.679113,10 219.999069,10" id="club" fill="#2A9EC5"></path>
        <path d="M139.047498,12 C147.369909,27.7270936 158.350351,40.5766629 172,50.5187339 C158.350351,60.5038928 147.369909,73.338475 139.047498,89 C130.659893,73.338475 119.644061,60.5038928 106,50.5187339 C119.644061,40.5766629 130.659893,27.7270936 139.047498,12" id="diamond" fill="#DDC73F"></path>
        <path d="M322.510285,12.4639693 C316.706372,10.6605328 307.657782,13.831901 304.340462,26.9863791 C304.064795,27.7047759 303.774226,27.691748 303.511598,26.9603232 C298.726536,13.6346211 290.842081,10.7219502 285.295209,12.4639693 C277.082933,15.1104984 270.429667,24.8963283 271.038743,37.3826601 C271.202653,59.1839555 290.715423,70.1627708 303.891571,91 C317.090071,70.1627708 336.824493,59.2137336 336.878508,37.3156594 C338.020292,24.6990484 330.951663,15.062109 322.510285,12.4639693" id="heart" fill="#DDC73F"></path>
        <path d="M50.9546537,91 C50.7646554,90.8736595 50.630539,90.8067733 50.4088743,90.6637112 C36.2595897,81.6526576 19.7576793,64.0746002 18.0663219,42.1619473 C17.2578978,31.7388523 23.9413671,24.5225776 32.582564,24.3646519 C38.0981026,24.2661806 42.5332588,26.2188852 44.9343157,29.9533631 C46.9311605,33.0579962 47.4396853,37.8440734 47.7638,35.6331138 C48.9280053,27.1961665 45.3888214,19.0862183 43.4702112,12 C45.6067606,12.7747648 48.2909522,13.1649341 50.9844574,13.1742239 L51.0273001,13.1742239 C53.7152171,13.1649341 56.3938205,12.7747648 58.5285072,12 C56.6154852,19.0862183 53.0800268,27.1961665 54.2405065,35.6331138 C54.5627585,37.8440734 55.0731461,33.0579962 57.0662654,29.9533631 C59.4635968,26.2188852 63.9024785,24.2661806 69.4142917,24.3646519 C78.0554885,24.5225776 84.7389578,31.7388523 83.9342592,42.1619473 C82.2429018,64.0746002 65.7354032,81.6526576 51.6028832,90.6637112 C51.446414,90.7770461 51.3104348,90.8495061 51.0887701,91 L50.9546537,91 Z" id="spade" fill="#2A9EC5"></path>
        <text id="REACT-PLAYING-CARDS" font-family="ArialMT, Arial" font-size="27" font-weight="normal" fill="#FFFFFF">
            <tspan x="16" y="126">REACT PLAYING CARDS</tspan>
        </text>
    </g>
</svg>