<?xml version="1.0" encoding="UTF-8"?>
<svg width="66px" height="79px" viewBox="0 0 66 79" version="1.1" xmlns="http://www.w3.org/2000/svg" xmlns:xlink="http://www.w3.org/1999/xlink">
    <!-- Generator: Sketch 60.1 (88133) - https://sketch.com -->
    <title>club</title>
    <desc>Created with Sketch.</desc>
    <g id="suits" stroke="none" stroke-width="1" fill="none" fill-rule="evenodd">
        <path d="M32.9990687,0 C24.3208873,0 17.2781306,7.91151983 17.2781306,17.6550637 C17.2781306,23.2291735 19.6083312,28.1715509 23.186521,31.4342631 C24.3916688,32.5379369 23.8738464,33.7345124 22.6426213,32.9875817 C20.4092795,31.6330731 17.8890864,30.7728021 15.1639997,30.7728021 C6.79502159,30.7728021 0,38.4019004 0,47.8017075 C0,57.2033727 6.79502159,64.832471 15.1639997,64.832471 C20.7464228,64.832471 25.6284819,61.4471283 28.2548472,56.3969848 C28.510033,55.9027471 28.7130641,55.2264218 29.0818728,55.2264218 C29.5754805,55.2264218 29.8083143,56.0365257 29.8083143,57.5563996 C29.8083143,63.667482 27.4576242,70.7967684 23.983744,79 C25.4831936,78.643257 30.0336974,77.7402512 32.9990687,77.7402512 C35.9737533,77.7402512 40.518669,78.643257 42.0237067,79 C38.5461011,70.7967684 36.1916857,63.667482 36.1916857,57.5563996 C36.1916857,56.0365257 36.4301075,55.2264218 36.9255779,55.2264218 C37.2925239,55.2264218 37.495555,55.9027471 37.7470155,56.3969848 C40.3771061,61.4471283 45.2535772,64.832471 50.8360003,64.832471 C59.2105664,64.832471 66,57.2033727 66,47.8017075 C66,38.4019004 59.2105664,30.7728021 50.8360003,30.7728021 C48.1165016,30.7728021 45.5944459,31.6330731 43.3536534,32.9875817 C42.1317416,33.7345124 41.6083312,32.5379369 42.8209296,31.4342631 C46.3935315,28.1715509 48.7237321,23.2291735 48.7237321,17.6550637 C48.7237321,7.91151983 41.6791127,0 32.9990687,0" id="club" fill="#2A9EC5"></path>
    </g>
</svg>