<?xml version="1.0" encoding="UTF-8"?>
<svg width="66px" height="79px" viewBox="0 0 66 79" version="1.1" xmlns="http://www.w3.org/2000/svg" xmlns:xlink="http://www.w3.org/1999/xlink">
    <!-- Generator: Sketch 60.1 (88133) - https://sketch.com -->
    <title>spade</title>
    <desc>Created with Sketch.</desc>
    <g id="suits" stroke="none" stroke-width="1" fill="none" fill-rule="evenodd">
        <path d="M32.9546537,79 C32.7646554,78.8736595 32.630539,78.8067733 32.4088743,78.6637112 C18.2595897,69.6526576 1.75767925,52.0746002 0.0663219078,30.1619473 C-0.742102197,19.7388523 5.94136713,12.5225776 14.582564,12.3646519 C20.0981026,12.2661806 24.5332588,14.2188852 26.9343157,17.9533631 C28.9311605,21.0579962 29.4396853,25.8440734 29.7638,23.6331138 C30.9280053,15.1961665 27.3888214,7.08621825 25.4702112,0 C27.6067606,0.774764817 30.2909522,1.16493415 32.9844574,1.17422389 L33.0273001,1.17422389 C35.7152171,1.16493415 38.3938205,0.774764817 40.5285072,0 C38.6154852,7.08621825 35.0800268,15.1961665 36.2405065,23.6331138 C36.5627585,25.8440734 37.0731461,21.0579962 39.0662654,17.9533631 C41.4635968,14.2188852 45.9024785,12.2661806 51.4142917,12.3646519 C60.0554885,12.5225776 66.7389578,19.7388523 65.9342592,30.1619473 C64.2429018,52.0746002 47.7354032,69.6526576 33.6028832,78.6637112 C33.446414,78.7770461 33.3104348,78.8495061 33.0887701,79 L32.9546537,79 Z" id="spade" fill="#2A9EC5"></path>
    </g>
</svg>